# xmcd
#
# Track frame offsets:
#	150
#	19377
#	40838
#	54092
#	65256
#	83361
#	98944
#	112425
#	127185
#	135765
#	155027
#	174604
#	189093
#	207947
#	224637
#	233230
#	246651
#	257599
#
# Disc length: 3769 seconds
#
# Revision: 1
# Processed by: cddbd v1.5.2PL0 Copyright (c) Steve Scherf et al.
# Submitted via: audiograbber 1.83.01
#
DISCID=030eb712
DTITLE=Brothers of Mercy and friends - X-tended
DYEAR=2004
DGENRE=Swing
TTITLE0=Gates
TTITLE1=F.I.U. - for inner use
TTITLE2=Appearence
TTITLE3=Samba do Daniel
TTITLE4=Peace
TTITLE5=Come on, children!
TTITLE6=Joyful hearts
TTITLE7=Tranquility
TTITLE8=Have mercy
TTITLE9=The friend
TTITLE10=Blessed assurance
TTITLE11=Mercy blues
TTITLE12=Eternity
TTITLE13=Turn no more!
TTITLE14=Samba de agradecimentos
TTITLE15=Tango amor
TTITLE16=Striking hour
TTITLE17=farewell!
EXTD=
EXTT0=
EXTT1=
EXTT2=
EXTT3=
EXTT4=
EXTT5=
EXTT6=
EXTT7=
EXTT8=
EXTT9=
EXTT10=
EXTT11=
EXTT12=
EXTT13=
EXTT14=
EXTT15=
EXTT16=
EXTT17=
PLAYORDER=
